<svg xmlns="http://www.w3.org/2000/svg" viewBox="64 44 175 145">
  <g fill="#e31f26" fill-rule="evenodd">
    <polygon points="180.55 51.66 200.08 49.3 214 56.35 203.62 67.92 180.55 51.66"/>
    <path d="M146.7,69.51l38.93-5.63,18.75,12.18-27.19,9.23s34.81-4.22,35.31-4.75c.5-.53,9.37-10.68,9.37-10.68h14.8s-23.63,22.6-23.63,22.6l-22.85-2.61s-11.26,10.57-23.74,12.5c0,0,35.64,7.01,44.24,12.18l-56.07,41.19,28.21-34.11s-19.19,2.12-39.83-11.48l24.23-29.06-10.65-2.45-28.9,19.78,19.01-28.89Z"/>
    <polygon points="139.97 115.23 158.53 123.31 69.79 183.01 139.97 115.23"/>
  </g>
</svg>
